<svg width="20" height="20" viewBox="0 0 20 20" fill="none" xmlns="http://www.w3.org/2000/svg">
<path d="M13.9289 4.4601C13.9289 4.36189 13.8485 4.28153 13.7503 4.28153H5.17885C5.08064 4.28153 5.00028 4.36189 5.00028 4.4601V5.53153C5.00028 5.62974 5.08064 5.7101 5.17885 5.7101H13.7503C13.8485 5.7101 13.9289 5.62974 13.9289 5.53153V4.4601ZM13.7503 7.49581H5.17885C5.08064 7.49581 5.00028 7.57617 5.00028 7.67439V8.74582C5.00028 8.84403 5.08064 8.92439 5.17885 8.92439H13.7503C13.8485 8.92439 13.9289 8.84403 13.9289 8.74582V7.67439C13.9289 7.57617 13.8485 7.49581 13.7503 7.49581ZM9.28599 10.7101H5.17885C5.08064 10.7101 5.00028 10.7905 5.00028 10.8887V11.9601C5.00028 12.0583 5.08064 12.1387 5.17885 12.1387H9.28599C9.38421 12.1387 9.46457 12.0583 9.46457 11.9601V10.8887C9.46457 10.7905 9.38421 10.7101 9.28599 10.7101ZM8.21457 17.5851H3.21457V1.87081H15.7146V9.54939C15.7146 9.6476 15.7949 9.72796 15.8931 9.72796H17.1431C17.2414 9.72796 17.3217 9.6476 17.3217 9.54939V0.977958C17.3217 0.582868 17.0025 0.263672 16.6074 0.263672H2.32171C1.92662 0.263672 1.60742 0.582868 1.60742 0.977958V18.478C1.60742 18.873 1.92662 19.1922 2.32171 19.1922H8.21457C8.31278 19.1922 8.39314 19.1119 8.39314 19.0137V17.7637C8.39314 17.6655 8.31278 17.5851 8.21457 17.5851ZM16.1789 15.9244C16.8262 15.3373 17.2324 14.4891 17.2324 13.5449C17.2324 11.7704 15.7927 10.3306 14.0181 10.3306C12.2436 10.3306 10.8039 11.7704 10.8039 13.5449C10.8039 14.4891 11.2101 15.3373 11.8574 15.9244C10.5851 16.6498 9.7101 17.9936 9.64314 19.5427C9.63867 19.6431 9.72126 19.728 9.82171 19.728H10.8954C10.9891 19.728 11.0672 19.6543 11.0739 19.5583C11.161 18.0137 12.4489 16.7815 14.0181 16.7815C15.5873 16.7815 16.8753 18.0137 16.9623 19.5583C16.9668 19.6521 17.0449 19.728 17.1409 19.728H18.2146C18.3172 19.728 18.3976 19.6431 18.3931 19.5427C18.3284 17.9914 17.4512 16.6498 16.1789 15.9244ZM14.0181 11.7592C15.0047 11.7592 15.8039 12.5583 15.8039 13.5449C15.8039 14.5315 15.0047 15.3306 14.0181 15.3306C13.0315 15.3306 12.2324 14.5315 12.2324 13.5449C12.2324 12.5583 13.0315 11.7592 14.0181 11.7592Z" fill="white" fill-opacity="0.8"/>
</svg>
