<svg width="20" height="20" viewBox="0 0 20 20" fill="none" xmlns="http://www.w3.org/2000/svg">
<path d="M16.9696 14.1975C16.4109 13.6384 15.7581 13.182 15.0411 12.8493C16.0522 12.0301 16.6973 10.7801 16.6973 9.37831C16.6973 6.9051 14.6348 4.87608 12.1616 4.91403C9.72634 4.95198 7.76429 6.93635 7.76429 9.37831C7.76429 10.7801 8.41161 12.0301 9.42054 12.8493C8.70336 13.1817 8.05049 13.6381 7.49196 14.1975C6.27321 15.4185 5.58125 17.0301 5.53661 18.7488C5.53601 18.7727 5.54019 18.7964 5.5489 18.8186C5.5576 18.8407 5.57066 18.861 5.5873 18.878C5.60395 18.8951 5.62383 18.9086 5.6458 18.9179C5.66776 18.9271 5.69135 18.9319 5.71518 18.9319H6.96518C7.06116 18.9319 7.14152 18.856 7.14375 18.76C7.18616 17.4654 7.71071 16.2533 8.63259 15.3337C9.10433 14.8594 9.66545 14.4834 10.2835 14.2275C10.9015 13.9716 11.5641 13.8407 12.233 13.8426C13.5924 13.8426 14.8714 14.3716 15.8335 15.3337C16.7531 16.2533 17.2777 17.4654 17.3223 18.76C17.3246 18.856 17.4049 18.9319 17.5009 18.9319H18.7509C18.7747 18.9319 18.7983 18.9271 18.8203 18.9179C18.8422 18.9086 18.8621 18.8951 18.8788 18.878C18.8954 18.861 18.9085 18.8407 18.9172 18.8186C18.9259 18.7964 18.9301 18.7727 18.9295 18.7488C18.8848 17.0301 18.1929 15.4185 16.9696 14.1975ZM12.233 12.2355C11.4696 12.2355 10.7509 11.9386 10.2129 11.3984C9.94298 11.1306 9.72972 10.8111 9.58591 10.459C9.4421 10.107 9.37067 9.72956 9.37589 9.3493C9.38259 8.61715 9.675 7.90956 10.1862 7.38501C10.7219 6.8359 11.4384 6.5301 12.204 6.52117C12.9607 6.51448 13.6951 6.80912 14.2353 7.33814C14.7888 7.88055 15.0924 8.60599 15.0924 9.37831C15.0924 10.1417 14.7955 10.8582 14.2554 11.3984C13.9903 11.6647 13.6751 11.8758 13.328 12.0195C12.9809 12.1631 12.6087 12.2366 12.233 12.2355ZM6.64152 9.9676C6.62143 9.7734 6.61027 9.57698 6.61027 9.37831C6.61027 9.0234 6.64375 8.67742 6.70625 8.34037C6.72187 8.26001 6.67946 8.17742 6.6058 8.14394C6.30223 8.00778 6.02321 7.82028 5.78214 7.58367C5.49808 7.30824 5.27455 6.97662 5.12581 6.60997C4.97708 6.24332 4.90641 5.8497 4.9183 5.45421C4.93839 4.73769 5.22634 4.05689 5.72857 3.54349C6.27991 2.97876 7.02098 2.67072 7.80893 2.67965C8.52098 2.68635 9.20848 2.9609 9.72857 3.44751C9.90491 3.61269 10.0567 3.79572 10.1839 3.99215C10.2286 4.06135 10.3156 4.09037 10.3915 4.06358C10.7844 3.92742 11.1996 3.83144 11.6259 3.7868C11.7509 3.7734 11.8223 3.63947 11.7665 3.52787C11.0411 2.0926 9.55893 1.10153 7.84464 1.07474C5.3692 1.0368 3.3067 3.06581 3.3067 5.5368C3.3067 6.93858 3.95179 8.18858 4.96295 9.00778C4.25312 9.3359 3.59911 9.78903 3.03214 10.356C1.80893 11.577 1.11696 13.1886 1.07232 14.9096C1.07173 14.9334 1.0759 14.9571 1.08461 14.9793C1.09332 15.0015 1.10638 15.0217 1.12302 15.0387C1.13966 15.0558 1.15955 15.0693 1.18151 15.0786C1.20347 15.0878 1.22706 15.0926 1.25089 15.0926H2.50313C2.59911 15.0926 2.67946 15.0167 2.6817 14.9207C2.72411 13.6261 3.24866 12.414 4.17054 11.4944C4.82679 10.8381 5.63036 10.3828 6.50759 10.1618C6.59464 10.1395 6.65268 10.0569 6.64152 9.9676Z" fill="white" fill-opacity="0.8"/>
</svg>
