<svg width="61" height="61" viewBox="0 0 61 61" fill="none" xmlns="http://www.w3.org/2000/svg">
<path d="M17.4297 53.1428C16.5531 53.1416 15.6918 52.9133 14.9297 52.4803C14.1703 52.0419 13.5396 51.4115 13.1008 50.6524C12.662 49.8933 12.4306 49.0321 12.4297 48.1553V11.9053C12.4306 11.028 12.6623 10.1665 13.1015 9.40707C13.5407 8.64769 14.172 8.01723 14.9319 7.57899C15.6919 7.14076 16.5537 6.91018 17.431 6.9104C18.3082 6.91063 19.17 7.14165 19.9297 7.58028L51.3422 25.6928C52.0999 26.1323 52.7288 26.7632 53.166 27.5222C53.6032 28.2812 53.8333 29.1418 53.8333 30.0178C53.8333 30.8937 53.6032 31.7543 53.166 32.5133C52.7288 33.2724 52.0999 33.9032 51.3422 34.3428L19.9297 52.5178C19.1638 52.9372 18.3028 53.1524 17.4297 53.1428ZM22.4297 20.5178V39.5178L38.8672 30.0178L22.4297 20.5178Z" stroke="white" stroke-width="1.25" stroke-linecap="round" stroke-linejoin="round"/>
<path d="M38.8672 30.0179L48.8547 24.2554" stroke="white" stroke-width="1.25" stroke-linecap="round" stroke-linejoin="round"/>
<path d="M12.4434 14.7554L22.4309 20.5179" stroke="white" stroke-width="1.25" stroke-linecap="round" stroke-linejoin="round"/>
<path d="M22.4297 39.5178V51.0303" stroke="white" stroke-width="1.25" stroke-linecap="round" stroke-linejoin="round"/>
</svg>
