<svg width="20" height="20" viewBox="0 0 20 20" fill="none" xmlns="http://www.w3.org/2000/svg">
<path d="M8.92802 1.78711H2.1423C1.94587 1.78711 1.78516 1.94782 1.78516 2.14425V8.92997C1.78516 9.1264 1.94587 9.28711 2.1423 9.28711H8.92802C9.12444 9.28711 9.28516 9.1264 9.28516 8.92997V2.14425C9.28516 1.94782 9.12444 1.78711 8.92802 1.78711ZM7.7673 7.76925H3.30301V3.30497H7.7673V7.76925ZM17.8566 1.78711H11.0709C10.8744 1.78711 10.7137 1.94782 10.7137 2.14425V8.92997C10.7137 9.1264 10.8744 9.28711 11.0709 9.28711H17.8566C18.053 9.28711 18.2137 9.1264 18.2137 8.92997V2.14425C18.2137 1.94782 18.053 1.78711 17.8566 1.78711ZM16.6959 7.76925H12.2316V3.30497H16.6959V7.76925ZM8.92802 10.7157H2.1423C1.94587 10.7157 1.78516 10.8764 1.78516 11.0728V17.8585C1.78516 18.055 1.94587 18.2157 2.1423 18.2157H8.92802C9.12444 18.2157 9.28516 18.055 9.28516 17.8585V11.0728C9.28516 10.8764 9.12444 10.7157 8.92802 10.7157ZM7.7673 16.6978H3.30301V12.2335H7.7673V16.6978ZM17.8566 10.7157H11.0709C10.8744 10.7157 10.7137 10.8764 10.7137 11.0728V17.8585C10.7137 18.055 10.8744 18.2157 11.0709 18.2157H17.8566C18.053 18.2157 18.2137 18.055 18.2137 17.8585V11.0728C18.2137 10.8764 18.053 10.7157 17.8566 10.7157ZM16.6959 16.6978H12.2316V12.2335H16.6959V16.6978Z" fill="white" fill-opacity="0.8"/>
</svg>
