<svg width="30" height="31" viewBox="0 0 30 31" fill="none" xmlns="http://www.w3.org/2000/svg">
<path fill-rule="evenodd" clip-rule="evenodd" d="M15 10.8125C12.4112 10.8125 10.3125 12.9112 10.3125 15.5C10.3125 18.0889 12.4112 20.1875 15 20.1875C17.5889 20.1875 19.6875 18.0889 19.6875 15.5C19.6875 12.9112 17.5889 10.8125 15 10.8125ZM12.1875 15.5C12.1875 13.9468 13.4468 12.6875 15 12.6875C16.5532 12.6875 17.8125 13.9468 17.8125 15.5C17.8125 17.0532 16.5532 18.3125 15 18.3125C13.4468 18.3125 12.1875 17.0532 12.1875 15.5Z" fill="white"/>
<path fill-rule="evenodd" clip-rule="evenodd" d="M14.9685 2.0625C14.413 2.06249 13.9491 2.06249 13.5684 2.08846C13.172 2.11551 12.7976 2.17381 12.4346 2.32416C11.5924 2.67305 10.9232 3.34224 10.5743 4.18453C10.3926 4.62303 10.3435 5.08515 10.3247 5.58745C10.3096 5.99124 10.1058 6.32814 9.80506 6.50176C9.50434 6.67539 9.11069 6.68341 8.75345 6.4946C8.30905 6.25971 7.88424 6.07124 7.41366 6.00929C6.50979 5.89029 5.59565 6.13524 4.87236 6.69024C4.56066 6.92941 4.32296 7.2245 4.10136 7.55425C3.88847 7.87101 3.65659 8.27269 3.3788 8.75384L3.34724 8.80851C3.06944 9.28965 2.83754 9.6913 2.66965 10.034C2.49489 10.3908 2.35817 10.7442 2.30689 11.1338C2.18789 12.0377 2.43284 12.9518 2.98782 13.6751C3.27672 14.0515 3.65229 14.3252 4.07784 14.5926C4.42006 14.8076 4.60997 15.1526 4.60995 15.5C4.60994 15.8472 4.42002 16.1922 4.07784 16.4072C3.65224 16.6746 3.27664 16.9484 2.98771 17.3249C2.43271 18.0481 2.18777 18.9622 2.30676 19.8661C2.35805 20.2556 2.49476 20.6091 2.66952 20.9659C2.83741 21.3086 3.06931 21.7102 3.3471 22.1914L3.37867 22.2461C3.65646 22.7272 3.88835 23.1289 4.10124 23.4456C4.32284 23.7754 4.56054 24.0705 4.87224 24.3096C5.59552 24.8646 6.50966 25.1096 7.41354 24.9906C7.88409 24.9286 8.30887 24.7402 8.75325 24.5054C9.11054 24.3165 9.50424 24.3245 9.805 24.4982C10.1058 24.6719 10.3096 25.0087 10.3247 25.4126C10.3435 25.9149 10.3927 26.377 10.5743 26.8155C10.9232 27.6577 11.5924 28.327 12.4346 28.6759C12.7976 28.8262 13.172 28.8845 13.5684 28.9115C13.9491 28.9375 14.413 28.9375 14.9685 28.9375H15.0316C15.5872 28.9375 16.051 28.9375 16.4319 28.9115C16.8282 28.8845 17.2026 28.8262 17.5656 28.6759C18.4079 28.327 19.0771 27.6577 19.426 26.8155C19.6076 26.377 19.6567 25.9149 19.6755 25.4125C19.6906 25.0087 19.8944 24.6719 20.1951 24.4981C20.4959 24.3245 20.8896 24.3165 21.2469 24.5052C21.6912 24.7401 22.116 24.9286 22.5866 24.9905C23.4905 25.1095 24.4046 24.8646 25.1279 24.3096C25.4396 24.0704 25.6772 23.7754 25.8989 23.4456C26.1117 23.1289 26.3436 22.7272 26.6214 22.2461L26.653 22.1914C26.9307 21.7102 27.1627 21.3085 27.3306 20.9657C27.5054 20.609 27.642 20.2556 27.6934 19.8661C27.8124 18.9621 27.5674 18.048 27.0124 17.3247C26.7235 16.9482 26.3479 16.6746 25.9224 16.4072C25.5801 16.1922 25.3902 15.8472 25.3902 15.4999C25.3902 15.1526 25.5801 14.8077 25.9222 14.5927C26.348 14.3254 26.7236 14.0517 27.0125 13.6751C27.5675 12.9519 27.8125 12.0377 27.6935 11.1339C27.6421 10.7443 27.5055 10.3909 27.3307 10.0341C27.1629 9.69141 26.931 9.28979 26.6531 8.80869L26.6216 8.75397C26.3437 8.27281 26.1119 7.8711 25.899 7.55434C25.6774 7.22459 25.4397 6.9295 25.128 6.69031C24.4047 6.13533 23.4906 5.89037 22.5866 6.00937C22.1161 6.07132 21.6914 6.25978 21.247 6.49465C20.8897 6.68349 20.496 6.67545 20.1952 6.5018C19.8945 6.32816 19.6906 5.99121 19.6755 5.58739C19.6567 5.0851 19.6076 4.623 19.426 4.18453C19.0771 3.34224 18.4079 2.67305 17.5656 2.32416C17.2026 2.17381 16.8282 2.11551 16.4319 2.08846C16.051 2.06249 15.5872 2.06249 15.0316 2.0625H14.9685ZM13.1521 4.05644C13.2486 4.01649 13.3951 3.97965 13.696 3.95911C14.0054 3.93801 14.4049 3.9375 15.0001 3.9375C15.5954 3.9375 15.9949 3.93801 16.3041 3.95911C16.6051 3.97965 16.7516 4.01649 16.848 4.05644C17.2309 4.21503 17.5351 4.5192 17.6936 4.90206C17.7437 5.02283 17.7851 5.21109 17.8019 5.65746C17.8389 6.64794 18.3501 7.60161 19.2577 8.1256C20.1652 8.6496 21.2469 8.6155 22.1231 8.15235C22.518 7.94362 22.7019 7.8854 22.8314 7.86834C23.2422 7.81425 23.6577 7.92559 23.9865 8.17785C24.0694 8.2414 24.1745 8.34986 24.3427 8.6002C24.5157 8.85754 24.7159 9.20325 25.0135 9.71875C25.3111 10.2343 25.5105 10.5805 25.6469 10.8589C25.7795 11.1298 25.8209 11.2751 25.8345 11.3786C25.8886 11.7894 25.7772 12.205 25.525 12.5337C25.4454 12.6374 25.3031 12.7675 24.9247 13.0051C24.0856 13.5325 23.5154 14.452 23.5152 15.4999C23.5152 16.5479 24.0855 17.4675 24.9247 17.9949C25.303 18.2325 25.4452 18.3625 25.5249 18.4662C25.7771 18.795 25.8885 19.2105 25.8344 19.6214C25.8207 19.7249 25.7794 19.8701 25.6467 20.141C25.5104 20.4194 25.311 20.7656 25.0134 21.2811C24.7157 21.7966 24.5156 22.1424 24.3426 22.3997C24.1744 22.65 24.0692 22.7585 23.9864 22.822C23.6576 23.0744 23.2421 23.1856 22.8312 23.1316C22.7017 23.1145 22.5179 23.0562 22.123 22.8476C21.2467 22.3844 20.1651 22.3504 19.2575 22.8744C18.3501 23.3984 17.8389 24.352 17.8019 25.3425C17.7851 25.7889 17.7437 25.9771 17.6936 26.098C17.5351 26.4807 17.2309 26.785 16.848 26.9436C16.7516 26.9835 16.6051 27.0204 16.3041 27.0409C15.9949 27.062 15.5954 27.0625 15.0001 27.0625C14.4049 27.0625 14.0054 27.062 13.696 27.0409C13.3951 27.0204 13.2486 26.9835 13.1521 26.9436C12.7694 26.785 12.4651 26.4807 12.3065 26.098C12.2565 25.9771 12.2151 25.7889 12.1984 25.3425C12.1613 24.3521 11.6501 23.3984 10.7425 22.8744C9.83492 22.3504 8.7534 22.3845 7.8771 22.8476C7.48219 23.0564 7.29841 23.1146 7.16881 23.1316C6.75795 23.1857 6.34244 23.0744 6.01367 22.8221C5.93085 22.7586 5.82569 22.6501 5.65745 22.3997C5.48451 22.1425 5.28432 21.7967 4.9867 21.2812C4.68906 20.7657 4.48976 20.4195 4.35337 20.1411C4.2207 19.8702 4.17935 19.7249 4.16572 19.6214C4.11164 19.2105 4.22297 18.795 4.47525 18.4662C4.55482 18.3626 4.69714 18.2325 5.07537 17.9949C5.9146 17.4676 6.4849 16.548 6.48495 15.5001C6.48501 14.452 5.91469 13.5324 5.07539 13.005C4.69724 12.7674 4.55494 12.6373 4.47536 12.5336C4.2231 12.2049 4.11176 11.7894 4.16585 11.3785C4.17947 11.275 4.22082 11.1297 4.3535 10.8588C4.48989 10.5804 4.68919 10.2342 4.98681 9.71866C5.28445 9.20316 5.48462 8.85745 5.65757 8.60011C5.82581 8.34979 5.93097 8.24131 6.01379 8.17777C6.34256 7.9255 6.75807 7.81416 7.16892 7.86825C7.29854 7.88531 7.48232 7.94354 7.87729 8.1523C8.75354 8.61544 9.83501 8.64953 10.7425 8.12556C11.6501 7.6016 12.1613 6.64796 12.1984 5.65753C12.2151 5.21111 12.2565 5.02284 12.3065 4.90206C12.4651 4.5192 12.7694 4.21503 13.1521 4.05644Z" fill="white"/>
</svg>
